<!DOCTYPE svg PUBLIC "-//W3C//DTD SVG 1.1//EN" "http://www.w3.org/Graphics/SVG/1.1/DTD/svg11.dtd">
<!-- Uploaded to: SVG Repo, www.svgrepo.com, Transformed by: SVG Repo Mixer Tools -->
<svg fill="#6246EA" height="800px" width="800px" version="1.1" id="Capa_1" xmlns="http://www.w3.org/2000/svg" xmlns:xlink="http://www.w3.org/1999/xlink" viewBox="0 0 297 297" xml:space="preserve" stroke="#6246EA">
<g id="SVGRepo_bgCarrier" stroke-width="0"/>
<g id="SVGRepo_tracerCarrier" stroke-linecap="round" stroke-linejoin="round"/>
<g id="SVGRepo_iconCarrier"> <g> <path d="M294.046,40.095c-2.204-2.071-5.277-2.948-8.243-2.363c-0.321,0.064-32.808,6.381-87.45,6.381 c-17.457,0-34.034,4.834-49.366,14.381c-15.333-9.547-31.911-14.381-49.366-14.381c-54.689,0-88.142-6.327-88.467-6.39 c-2.963-0.576-6.022,0.313-8.217,2.385c-2.193,2.072-3.256,5.074-2.852,8.066c0.154,1.149,3.713,26.803,15.375,54.364v174.319 c0,5.174,4.195,9.369,9.369,9.369c5.174,0,9.369-4.195,9.369-9.369V135.745c17.493,23.114,39.72,35.164,65.423,35.164 c19.213,0,35.784-4.035,49.366-12.008c13.581,7.973,30.151,12.008,49.366,12.008c34.121,0,62.077-21.711,80.844-62.786 c13.514-29.578,17.554-58.724,17.72-59.95C297.32,45.175,296.25,42.166,294.046,40.095z M198.353,152.171 c-17.887,0-32.672-4.056-43.942-12.055c-1.624-1.152-3.523-1.73-5.423-1.73s-3.798,0.577-5.422,1.729 c-11.273,8-26.06,12.056-43.945,12.056c-51.896,0-72.238-65.816-78.564-93.975c15.035,1.979,42.096,4.654,78.564,4.654 c15.569,0,30.354,4.891,43.945,14.534c3.248,2.306,7.597,2.305,10.845-0.001c13.587-9.644,28.371-14.533,43.942-14.533 c36.206,0,62.766-2.638,77.594-4.616C269.648,86.419,249.47,152.171,198.353,152.171z"/> <path d="M92.178,73.864H55.746c-2.994,0-5.808,1.43-7.57,3.849c-1.764,2.419-2.266,5.535-1.351,8.385 c0.582,1.81,14.586,44.315,45.353,44.315c24.388,0,36.679-0.98,37.19-1.022c2.862-0.234,5.46-1.768,7.046-4.161 c1.587-2.395,1.988-5.384,1.089-8.111C136.92,115.353,122.887,73.864,92.178,73.864z M92.178,111.675 c-9.262,0-17.054-9.934-22.073-19.073h22.073c9.834,0,17.507,10.178,22.227,18.752C108.754,111.53,101.336,111.675,92.178,111.675z "/> <path d="M159.499,117.117c-0.899,2.728-0.499,5.718,1.088,8.111c1.587,2.395,4.185,3.928,7.048,4.162 c0.511,0.042,12.806,1.022,37.191,1.022c30.763,0,44.767-42.506,45.349-44.315c0.915-2.85,0.414-5.966-1.351-8.385 c-1.764-2.419-4.576-3.849-7.57-3.849h-36.428C174.119,73.864,160.081,115.352,159.499,117.117z M204.826,92.602h22.106 c-4.997,9.141-12.781,19.073-22.106,19.073c-9.158,0-16.576-0.145-22.227-0.321C187.32,102.776,194.994,92.602,204.826,92.602z"/> <path d="M148.497,44.503c2.464,0,4.882-1.003,6.623-2.745c1.753-1.742,2.746-4.16,2.746-6.624c0-2.464-0.993-4.881-2.746-6.624 c-1.741-1.743-4.159-2.745-6.623-2.745c-2.464,0-4.881,1.002-6.624,2.745c-1.743,1.743-2.745,4.16-2.745,6.624 c0,2.464,1.002,4.882,2.745,6.624C143.616,43.5,146.033,44.503,148.497,44.503z"/> <path d="M117.579,38.882c2.464,0,4.882-1.003,6.623-2.746c1.753-1.742,2.746-4.159,2.746-6.623s-0.993-4.882-2.746-6.624 c-1.741-1.743-4.159-2.745-6.623-2.745c-2.464,0-4.881,1.002-6.624,2.745c-1.743,1.742-2.745,4.16-2.745,6.624 s1.002,4.881,2.745,6.623C112.698,37.879,115.115,38.882,117.579,38.882z"/> <path d="M86.661,29.513c2.474,0,4.881-1.003,6.623-2.746c1.753-1.742,2.746-4.159,2.746-6.623c0-2.464-0.993-4.882-2.746-6.624 c-1.742-1.743-4.149-2.745-6.623-2.745c-2.464,0-4.881,1.002-6.624,2.745c-1.743,1.742-2.745,4.16-2.745,6.624 c0,2.464,1.002,4.881,2.745,6.623C81.78,28.51,84.197,29.513,86.661,29.513z"/> <path d="M179.415,38.882c2.464,0,4.882-1.003,6.623-2.746c1.753-1.742,2.746-4.159,2.746-6.623s-0.993-4.882-2.746-6.624 c-1.741-1.743-4.159-2.745-6.623-2.745c-2.464,0-4.881,1.002-6.624,2.745c-1.743,1.742-2.745,4.16-2.745,6.624 s1.002,4.881,2.745,6.623C174.534,37.879,176.951,38.882,179.415,38.882z"/> <path d="M210.333,29.513c2.474,0,4.882-1.003,6.623-2.746c1.753-1.742,2.746-4.159,2.746-6.623c0-2.464-0.993-4.882-2.746-6.624 c-1.741-1.743-4.15-2.745-6.623-2.745c-2.464,0-4.881,1.002-6.624,2.745c-1.743,1.742-2.745,4.16-2.745,6.624 c0,2.464,1.002,4.881,2.745,6.623C205.452,28.51,207.869,29.513,210.333,29.513z"/> </g> </g>
</svg>